# xmcd
#
# Track frame offsets: 
#        150
#        15761
#        30575
#        43506
#        57252
#        71784
#        82499
#        91570
#        104877
#        117444
#
# Disc length: 1792 seconds
#
# Revision: 0
# Processed by: cddbd v1.5.2PL0 Copyright (c) Steve Scherf et al.
# Submitted via: ExactAudioCopy v0.95b4
#
DISCID=8006fe0a
DTITLE=Various Artist - Outlaw Country The Wild Side of Country
DYEAR=2006
DGENRE=Outlaw Country
TTITLE0=Willie Nelson - Mamas Don't Let Your Babies Grow Up to Be Cowb
TTITLE0=oys
TTITLE1=Johnny Cash and Waylon Jennings - There Ain't No Good Chain Gang
TTITLE2=Merle Haggard - The Fightin' Side of Me
TTITLE3=Tanya Tucker - I Believe the South is Going to Rise Again
TTITLE4=Johnny Paycheck - I'm the Only Hell (Mama Ever Raised)
TTITLE5=George Jones - Who Shot Sam
TTITLE6=Roger Miller - Chug-A-Lug
TTITLE7=Hank Thompson - The Wild Side of Life
TTITLE8=Ernest Tubb with Boxcar Willie - Drivin' Nails in My Coffin
TTITLE9=Stonewall Jackson - I Washed My Hands in Muddy Water
EXTD=
EXTT0=
EXTT1=
EXTT2=
EXTT3=
EXTT4=
EXTT5=
EXTT6=
EXTT7=
EXTT8=
EXTT9=
PLAYORDER=
